<?xml version="1.0" standalone="no"?>
<!DOCTYPE svg PUBLIC "-//W3C//DTD SVG 20010904//EN"
 "http://www.w3.org/TR/2001/REC-SVG-20010904/DTD/svg10.dtd">
<svg version="1.0" xmlns="http://www.w3.org/2000/svg"
 width="1536.000000pt" height="1024.000000pt" viewBox="0 0 1536.000000 1024.000000"
 preserveAspectRatio="xMidYMid meet">

<g transform="translate(0.000000,1024.000000) scale(0.100000,-0.100000)"
fill="#000000" stroke="none">
<path d="M10660 8651 c-384 -84 -716 -391 -840 -778 -127 -395 -54 -746 272
-1318 145 -253 366 -573 556 -804 34 -41 60 -76 58 -78 -2 -2 -23 5 -47 15
-86 37 -315 111 -434 141 -291 73 -609 117 -912 125 -87 3 -147 3 -133 0 14
-3 99 -18 190 -35 441 -80 824 -210 1038 -353 92 -61 183 -154 223 -229 29
-53 34 -72 34 -132 0 -57 -5 -81 -29 -130 -72 -148 -297 -302 -638 -439 -499
-200 -1154 -349 -2883 -656 -547 -97 -956 -177 -1500 -295 -371 -80 -481 -104
-805 -170 -602 -124 -1482 -305 -1530 -316 l-55 -13 95 -13 c110 -15 1213
-126 2330 -234 58 -5 164 -16 235 -24 221 -25 241 -23 613 60 186 42 411 93
502 115 91 21 237 55 325 75 901 205 1630 392 2175 560 923 285 1498 578 1768
901 152 183 193 383 112 549 -46 94 -173 222 -293 295 -49 30 -90 57 -93 62
-3 4 33 54 79 110 390 480 770 1110 885 1468 51 156 57 201 56 395 -1 160 -4
191 -27 277 -112 422 -419 743 -817 854 -130 36 -380 44 -510 15z m321 -581
c30 -5 91 -28 135 -50 203 -99 334 -316 334 -550 0 -107 -21 -194 -65 -279
-147 -278 -465 -385 -741 -250 -128 63 -237 193 -285 340 -21 64 -24 92 -23
204 0 114 3 138 26 197 106 280 356 437 619 388z"/>
<path d="M5955 7399 c-576 -24 -851 -76 -1095 -207 -211 -113 -433 -279 -705
-526 -186 -170 -241 -208 -353 -241 -334 -102 -684 -278 -843 -423 -153 -140
-249 -356 -280 -631 -13 -121 -7 -518 10 -571 22 -73 66 -126 126 -156 51 -24
73 -28 184 -33 116 -6 126 -8 129 -26 7 -46 47 -129 82 -172 50 -60 110 -99
193 -124 93 -29 303 -24 388 9 67 27 162 110 212 185 l36 54 68 -9 c284 -34
937 -63 1249 -55 l222 6 17 -47 c36 -95 111 -179 181 -202 36 -12 198 -9 211
4 3 3 -6 19 -21 36 -193 231 -244 721 -109 1058 61 153 143 257 246 313 57 32
69 34 152 34 74 0 97 -4 133 -23 224 -119 340 -473 288 -872 -8 -58 -13 -106
-12 -107 1 -1 121 23 266 53 404 83 899 182 953 189 45 7 47 6 47 -16 0 -32
41 -118 72 -151 44 -46 86 -62 165 -60 89 1 102 7 69 33 -34 27 -80 127 -103
224 -14 63 -18 118 -17 255 1 155 4 186 27 272 34 129 76 215 139 283 158 173
339 125 417 -111 29 -90 51 -238 51 -351 0 -105 3 -108 65 -65 92 64 121 174
112 434 -10 320 -67 658 -124 740 -16 23 -70 69 -132 111 -75 51 -162 127
-305 267 -275 268 -405 363 -623 456 -179 76 -394 122 -723 154 -147 15 -805
20 -1065 9z m703 -328 c-100 -104 -163 -186 -318 -415 -52 -77 -106 -148 -120
-158 -14 -10 -52 -23 -85 -28 -156 -24 -1321 -38 -1784 -21 l-173 6 158 140
c251 222 283 248 389 325 107 76 303 178 397 204 31 9 83 19 115 22 121 12
516 21 1007 22 l508 2 -94 -99z m674 64 c321 -67 617 -236 764 -436 63 -87 47
-101 -139 -123 -67 -8 -230 -28 -362 -45 -215 -27 -397 -48 -812 -96 -176 -20
-213 -20 -213 2 0 51 221 416 327 539 139 161 243 199 435 159z m-4363 -1331
c41 -34 87 -133 101 -217 21 -120 -5 -174 -79 -164 -111 14 -156 71 -156 197
0 90 9 134 35 178 24 40 57 42 99 6z m2515 -28 c32 -20 33 -47 5 -121 -24 -64
-82 -146 -130 -181 -87 -64 -363 -110 -615 -102 -112 4 -149 9 -180 24 -75 36
-75 96 -2 158 50 43 219 126 323 159 234 75 534 106 599 63z"/>
<path d="M8395 5695 c-61 -33 -104 -90 -144 -192 -55 -140 -69 -389 -31 -537
25 -99 76 -194 120 -223 62 -43 156 -21 215 49 169 199 161 763 -12 892 -35
26 -110 31 -148 11z m104 -291 c48 -61 55 -259 12 -347 -39 -81 -85 -86 -123
-14 -19 36 -22 58 -22 157 0 118 12 169 51 212 23 26 58 22 82 -8z"/>
<path d="M6161 5484 c-93 -47 -170 -170 -213 -340 -31 -120 -33 -396 -5 -519
43 -187 141 -322 250 -345 154 -31 285 101 355 358 23 89 26 113 26 287 0 163
-3 201 -21 266 -73 262 -225 376 -392 293z m168 -345 c84 -84 89 -360 8 -479
-43 -65 -111 -65 -154 -1 -37 55 -48 108 -47 231 0 95 4 125 23 172 41 104
111 136 170 77z"/>
</g>
</svg>
